<svg width="32" height="32" viewBox="0 0 32 32" fill="none" xmlns="http://www.w3.org/2000/svg">
<path d="M10.6667 14.6667C10.3131 14.6667 9.97395 14.8071 9.7239 15.0572C9.47385 15.3072 9.33337 15.6464 9.33337 16C9.33337 16.3536 9.47385 16.6928 9.7239 16.9428C9.97395 17.1929 10.3131 17.3333 10.6667 17.3333H21.3334C21.687 17.3333 22.0261 17.1929 22.2762 16.9428C22.5262 16.6928 22.6667 16.3536 22.6667 16C22.6667 15.6464 22.5262 15.3072 22.2762 15.0572C22.0261 14.8071 21.687 14.6667 21.3334 14.6667H10.6667Z" fill="white"/>
<path fill-rule="evenodd" clip-rule="evenodd" d="M30.6667 16C30.6667 24.1 24.1 30.6667 16 30.6667C7.90004 30.6667 1.33337 24.1 1.33337 16C1.33337 7.9 7.90004 1.33334 16 1.33334C24.1 1.33334 30.6667 7.9 30.6667 16ZM28 16C28 17.5759 27.6897 19.1363 27.0866 20.5922C26.4835 22.0481 25.5996 23.371 24.4853 24.4853C23.371 25.5996 22.0481 26.4835 20.5922 27.0866C19.1363 27.6896 17.5759 28 16 28C14.4242 28 12.8637 27.6896 11.4078 27.0866C9.95193 26.4835 8.62906 25.5996 7.51476 24.4853C6.40046 23.371 5.51654 22.0481 4.91349 20.5922C4.31043 19.1363 4.00004 17.5759 4.00004 16C4.00004 12.8174 5.26432 9.76516 7.51476 7.51472C9.76519 5.26428 12.8174 4 16 4C19.1826 4 22.2349 5.26428 24.4853 7.51472C26.7358 9.76516 28 12.8174 28 16Z" fill="white"/>
</svg>
