<svg width="32" height="32" viewBox="0 0 32 32" fill="none" xmlns="http://www.w3.org/2000/svg">
<path d="M9.33337 22.684L15.2174 22.664L28.06 9.944C28.564 9.44 28.8414 8.77067 28.8414 8.05867C28.8414 7.34667 28.564 6.67733 28.06 6.17333L25.9454 4.05867C24.9374 3.05067 23.1787 3.056 22.1787 4.05467L9.33337 16.7773V22.684V22.684ZM24.06 5.944L26.1787 8.05467L24.0494 10.164L21.9347 8.05067L24.06 5.944ZM12 17.8893L20.04 9.92533L22.1547 12.04L14.116 20.0013L12 20.008V17.8893Z" fill="white"/>
<path d="M6.66667 28H25.3333C26.804 28 28 26.804 28 25.3333V13.776L25.3333 16.4427V25.3333H10.8773C10.8427 25.3333 10.8067 25.3467 10.772 25.3467C10.728 25.3467 10.684 25.3347 10.6387 25.3333H6.66667V6.66667H15.796L18.4627 4H6.66667C5.196 4 4 5.196 4 6.66667V25.3333C4 26.804 5.196 28 6.66667 28Z" fill="white"/>
</svg>
