<svg width="32" height="32" viewBox="0 0 32 32" fill="none" xmlns="http://www.w3.org/2000/svg">
<path d="M16.0889 9.77778C12.6222 9.77778 9.86667 12.5333 9.86667 16C9.86667 19.4667 12.6222 22.2222 16.0889 22.2222C19.5556 22.2222 22.3111 19.4667 22.3111 16C22.3111 12.5333 19.5556 9.77778 16.0889 9.77778ZM16.0889 20.4444C13.6 20.4444 11.6444 18.4889 11.6444 16C11.6444 13.5111 13.6 11.5556 16.0889 11.5556C18.5778 11.5556 20.5333 13.5111 20.5333 16C20.5333 18.4889 18.5778 20.4444 16.0889 20.4444Z" fill="#33CC33"/>
<path d="M29.1555 13.0667L26.6667 12.2667L26.1333 10.9333L27.3778 8.62222C27.6444 8.08889 27.5555 7.37778 27.1111 6.93333L24.9778 4.8C24.5333 4.35556 23.8222 4.26667 23.2889 4.53333L20.9778 5.77778L19.6444 5.24445L18.8444 2.75556C18.6667 2.22222 18.1333 1.77778 17.5111 1.77778H14.4889C13.8667 1.77778 13.3333 2.22222 13.2444 2.84445L12.4444 5.33333C11.9111 5.42222 11.4667 5.6 11.0222 5.86667L8.7111 4.62222C8.17777 4.35556 7.46666 4.44445 7.02222 4.88889L4.88888 7.02222C4.44444 7.46667 4.35555 8.17778 4.62222 8.71111L5.77777 10.9333C5.59999 11.3778 5.42222 11.9111 5.24444 12.3556L2.75555 13.1556C2.22222 13.3333 1.77777 13.8667 1.77777 14.4889V17.5111C1.77777 18.1333 2.22222 18.6667 2.84444 18.8444L5.33333 19.6444L5.86666 20.9778L4.62222 23.2889C4.35555 23.8222 4.44444 24.5333 4.88888 24.9778L7.02222 27.1111C7.46666 27.5556 8.17777 27.6444 8.7111 27.3778L11.0222 26.1333L12.3555 26.6667L13.1555 29.2444C13.3333 29.7778 13.8667 30.2222 14.4889 30.2222H17.5111C18.1333 30.2222 18.6667 29.7778 18.8444 29.2444L19.6444 26.6667L20.9778 26.1333L23.2889 27.3778C23.8222 27.6444 24.5333 27.5556 24.9778 27.1111L27.1111 24.9778C27.5555 24.5333 27.6444 23.8222 27.3778 23.2889L26.1333 20.9778L26.6667 19.6444L29.2444 18.8444C29.7778 18.6667 30.2222 18.1333 30.2222 17.5111V14.4889C30.2222 13.8667 29.7778 13.2444 29.1555 13.0667ZM28.4444 17.2444L25.2444 18.2222L25.1555 18.6667L24.3555 20.5333L24.0889 20.9778L25.6889 23.9111L23.9111 25.6889L20.9778 24.0889L20.5333 24.3556C19.9111 24.7111 19.2889 24.9778 18.6667 25.1556L18.2222 25.2444L17.2444 28.4444H14.7555L13.7778 25.2444L13.3333 25.1556L11.4667 24.3556L11.0222 24.0889L8.08888 25.6889L6.3111 23.9111L7.9111 20.9778L7.64444 20.5333C7.28888 19.9111 7.02221 19.2889 6.84444 18.6667L6.75555 18.2222L3.55555 17.2444V14.7556L6.57777 13.8667L6.75555 13.4222C6.93333 12.7111 7.19999 12.0889 7.55555 11.4667L7.82222 11.0222L6.3111 8.08889L8.08888 6.31111L10.9333 7.91111L11.3778 7.64445C12 7.28889 12.6222 7.02222 13.3333 6.84444L13.7778 6.66667L14.7555 3.55556H17.2444L18.2222 6.66667L18.6667 6.84444C19.2889 7.02222 19.9111 7.28889 20.5333 7.64445L20.9778 7.91111L23.9111 6.31111L25.6889 8.08889L24.0889 11.0222L24.3555 11.4667C24.7111 12.0889 24.9778 12.7111 25.1555 13.3333L25.2444 13.7778L28.4444 14.7556V17.2444Z" fill="#33CC33"/>
</svg>
